<svg width="15" height="16" viewBox="0 0 15 16" fill="none" xmlns="http://www.w3.org/2000/svg">
<path fill-rule="evenodd" clip-rule="evenodd" d="M0.249026 1.13202C0.353455 1.02778 0.494976 0.969238 0.642526 0.969238C0.790076 0.969238 0.931598 1.02778 1.03603 1.13202L14.423 14.498C14.4747 14.5498 14.5157 14.6112 14.5436 14.6788C14.5716 14.7463 14.5859 14.8187 14.5859 14.8919C14.5858 14.965 14.5714 15.0374 14.5434 15.1049C14.5153 15.1725 14.4743 15.2338 14.4225 15.2855C14.3708 15.3372 14.3094 15.3782 14.2418 15.4061C14.1742 15.4341 14.1018 15.4484 14.0287 15.4484C13.9555 15.4483 13.8831 15.4339 13.8156 15.4058C13.7481 15.3778 13.6867 15.3368 13.635 15.285L0.250026 1.91802C0.198323 1.86646 0.157301 1.80521 0.129312 1.73777C0.101322 1.67034 0.0869141 1.59804 0.0869141 1.52502C0.0869141 1.45201 0.101322 1.37971 0.129312 1.31227C0.157301 1.24483 0.197323 1.18358 0.249026 1.13202Z" fill="#21201F"/>
<path fill-rule="evenodd" clip-rule="evenodd" d="M0.249003 15.285C0.197149 15.2335 0.156 15.1722 0.127922 15.1046C0.0998429 15.0371 0.0853882 14.9647 0.0853882 14.8916C0.0853882 14.8184 0.0998429 14.746 0.127922 14.6785C0.156 14.6109 0.197149 14.5496 0.249003 14.498L13.635 1.13205C13.7407 1.03479 13.8798 0.982096 14.0234 0.984975C14.167 0.987855 14.3039 1.04608 14.4056 1.1475C14.5073 1.24893 14.5658 1.3857 14.5691 1.52928C14.5723 1.67286 14.52 1.81214 14.423 1.91805L1.036 15.285C0.931574 15.3893 0.790052 15.4478 0.642502 15.4478C0.494952 15.4478 0.353431 15.3893 0.249003 15.285Z" fill="#21201F"/>
</svg>
