<svg width="24" height="24" viewBox="0 0 11 9" fill="none" xmlns="http://www.w3.org/2000/svg">
  <path d="M6.16963 1.44419C6.16963 1.16593 6.0591 0.89907 5.86234 0.702313C5.66558 0.505556 5.39872 0.39502 5.12047 0.39502C4.84221 0.39502 4.57535 0.505556 4.37859 0.702313C4.18184 0.89907 4.0713 1.16593 4.0713 1.44419C4.0713 2.31867 4.42277 3.01794 5.12047 3.54252H5.11627M5.11627 3.54252L9.29772 5.86537C9.46136 5.95625 9.59771 6.08925 9.69263 6.25058C9.78754 6.41191 9.83757 6.59569 9.83752 6.78287V7.2146C9.83752 7.49286 9.72698 7.75972 9.53023 7.95648C9.33347 8.15323 9.06661 8.26377 8.78835 8.26377H1.44419C1.16593 8.26377 0.89907 8.15323 0.702313 7.95648C0.505556 7.75972 0.39502 7.49286 0.39502 7.2146V6.78287C0.39497 6.59569 0.444998 6.41191 0.539913 6.25058C0.634829 6.08925 0.771177 5.95625 0.934816 5.86537L5.11627 3.54252Z" stroke="currentColor" stroke-width="0.79" stroke-linecap="round" stroke-linejoin="round"/>
</svg>
