<svg width="108" height="108" viewBox="0 0 108 108" fill="none" xmlns="http://www.w3.org/2000/svg">
<path fill-rule="evenodd" clip-rule="evenodd" d="M27.1325 75.9593C25.3424 77.0549 23.0032 76.4919 21.9077 74.7018L20.2636 72.0155L18.786 69.0476L17.5726 65.9622L16.6328 62.7828L15.9737 59.5336L15.6002 56.2393L15.5153 52.925L15.7196 49.6159L16.2115 46.3373L16.9485 43.2752C17.4396 41.2348 19.4918 39.9788 21.5322 40.4699C23.5726 40.961 24.8286 43.0132 24.3375 45.0536L23.6782 47.793L23.2847 50.4154L23.1213 53.0621L23.1893 55.713L23.4879 58.3479L24.0151 60.9467L24.7668 63.4897L25.7373 65.9574L26.9191 68.3312L28.39 70.7345C29.4855 72.5246 28.9225 74.8638 27.1325 75.9593Z" fill="black"/>
<path fill-rule="evenodd" clip-rule="evenodd" d="M32.542 81.0995C33.5444 79.2557 35.8518 78.5736 37.6955 79.5761L40.171 80.922L42.6022 81.9807L45.1164 82.8236L47.6945 83.4441L50.3169 83.8375L52.9636 84.0009L55.6145 83.933L58.2494 83.6343L60.8482 83.1071L63.3912 82.3554L65.8589 81.385L68.2327 80.2031L70.4945 78.8189L72.627 77.2428L74.6141 75.4868L76.4405 73.5643L78.0924 71.49L79.5573 69.2796L80.8239 66.9499L81.8827 64.5187L82.7255 62.0044L83.346 59.4264L83.7395 56.8039L83.9029 54.1572L83.8349 51.5064L83.5363 48.8715L83.0091 46.2727L82.2574 43.7297L81.2869 41.2619L80.1051 38.8882L78.7208 36.6263L77.1447 34.4938L75.3888 32.5068L73.4662 30.6803L71.392 29.0284L69.1815 27.5636L66.8518 26.297L64.4206 25.2382L61.9064 24.3954L59.3283 23.7749L56.7059 23.3814L54.0592 23.218L51.4083 23.2859L48.7734 23.5846L46.1747 24.1118L43.6316 24.8635L41.1639 25.834L38.7901 27.0158L36.5283 28.4001L34.3958 29.9762L32.4088 31.7321L30.4681 33.7749C29.0225 35.2964 26.6173 35.358 25.0958 33.9125C23.5743 32.467 23.5127 30.0618 24.9582 28.5403L27.1274 26.2569L29.6118 24.0615L32.278 22.0909L35.1058 20.3603L38.0737 18.8826L41.1591 17.6693L44.3385 16.7295L47.5877 16.0704L50.882 15.6969L54.1963 15.612L57.5054 15.8163L60.7841 16.3082L64.0074 17.084L67.1509 18.1378L70.1905 19.4615L73.1032 21.0451L75.8669 22.8766L78.4603 24.942L80.8639 27.2255L83.0594 29.7098L85.0299 32.376L86.7606 35.2039L88.2382 38.1718L89.4516 41.2571L90.3914 44.4365L91.0505 47.6857L91.424 50.98L91.5089 54.2943L91.3046 57.6034L90.8127 60.8821L90.0369 64.1055L88.9831 67.2489L87.6594 70.2886L86.0757 73.2013L84.2443 75.9649L82.1789 78.5584L79.8954 80.962L77.4111 83.1574L74.7448 85.128L71.917 86.8587L68.9491 88.3363L65.8637 89.5496L62.6843 90.4894L59.4351 91.1486L56.1408 91.522L52.8265 91.6069L49.5175 91.4026L46.2388 90.9107L43.0154 90.1349L39.872 89.0811L36.8323 87.7574L34.0653 86.253C32.2216 85.2506 31.5395 82.9432 32.542 81.0995Z" fill="black" fill-opacity="0.45"/>
</svg>
