<svg width="1584" height="245" viewBox="0 0 1584 245" fill="none" xmlns="http://www.w3.org/2000/svg">
<path d="M131.362 34.4131V210.725L0 244.291V0.708984L131.362 34.4131ZM110.354 110.164C106.453 110.164 103.29 114.111 103.29 118.979C103.29 123.848 106.453 127.795 110.354 127.795C114.256 127.795 117.419 123.848 117.419 118.979C117.419 114.111 114.256 110.164 110.354 110.164Z" fill="#265A64"/>
<path d="M175.848 76.9219V60.8636H271.533V76.9219H232.957V184.5H214.363V76.9219H175.848ZM309.279 129.443V184.5H291.229V60.8636H309.038V106.865H310.185C312.358 101.875 315.678 97.9103 320.146 94.9723C324.613 92.0343 330.449 90.5653 337.653 90.5653C344.012 90.5653 349.566 91.8733 354.315 94.4893C359.104 97.1053 362.807 101.009 365.423 106.201C368.079 111.353 369.407 117.792 369.407 125.519V184.5H351.356V127.692C351.356 120.891 349.606 115.619 346.104 111.876C342.603 108.093 337.733 106.201 331.495 106.201C327.229 106.201 323.406 107.107 320.025 108.918C316.684 110.729 314.048 113.385 312.116 116.886C310.225 120.348 309.279 124.533 309.279 129.443ZM433.459 186.371C424.323 186.371 416.455 184.42 409.854 180.516C403.294 176.571 398.223 171.038 394.641 163.914C391.1 156.75 389.329 148.359 389.329 138.74C389.329 129.242 391.1 120.871 394.641 113.626C398.223 106.382 403.214 100.728 409.613 96.6626C416.052 92.5978 423.578 90.5653 432.191 90.5653C437.423 90.5653 442.494 91.4306 447.404 93.1612C452.314 94.8918 456.721 97.6084 460.625 101.311C464.529 105.014 467.608 109.823 469.861 115.739C472.115 121.615 473.242 128.759 473.242 137.17V143.57H399.531V130.047H455.554C455.554 125.298 454.588 121.092 452.656 117.43C450.724 113.727 448.008 110.809 444.506 108.676C441.045 106.543 436.98 105.477 432.312 105.477C427.241 105.477 422.814 106.724 419.031 109.219C415.288 111.674 412.39 114.894 410.337 118.879C408.325 122.823 407.319 127.109 407.319 131.737V142.302C407.319 148.5 408.406 153.772 410.579 158.119C412.792 162.465 415.871 165.786 419.815 168.08C423.759 170.333 428.368 171.46 433.64 171.46C437.061 171.46 440.18 170.977 442.997 170.011C445.814 169.005 448.249 167.516 450.302 165.544C452.354 163.572 453.924 161.137 455.011 158.239L472.095 161.318C470.727 166.349 468.272 170.756 464.73 174.539C461.229 178.282 456.822 181.2 451.509 183.293C446.237 185.345 440.22 186.371 433.459 186.371ZM539.709 184.5V60.8636H616.378V76.9219H558.363V114.592H610.884V130.59H558.363V184.5H539.709ZM637.869 184.5V91.7727H655.92V184.5H637.869ZM646.985 77.4652C643.846 77.4652 641.149 76.4188 638.896 74.326C636.682 72.1929 635.575 69.6574 635.575 66.7195C635.575 63.7412 636.682 61.2057 638.896 59.1129C641.149 56.9799 643.846 55.9133 646.985 55.9133C650.124 55.9133 652.801 56.9799 655.014 59.1129C657.268 61.2057 658.395 63.7412 658.395 66.7195C658.395 69.6574 657.268 72.1929 655.014 74.326C652.801 76.4188 650.124 77.4652 646.985 77.4652ZM723.488 91.7727V106.261H672.838V91.7727H723.488ZM686.421 69.5568H704.472V157.273C704.472 160.775 704.995 163.411 706.041 165.182C707.088 166.912 708.436 168.1 710.086 168.744C711.776 169.347 713.608 169.649 715.58 169.649C717.029 169.649 718.296 169.549 719.383 169.347C720.47 169.146 721.315 168.985 721.918 168.864L725.178 183.776C724.132 184.178 722.643 184.58 720.711 184.983C718.779 185.426 716.364 185.667 713.467 185.707C708.718 185.788 704.291 184.943 700.186 183.172C696.08 181.401 692.76 178.664 690.225 174.962C687.689 171.259 686.421 166.611 686.421 161.016V69.5568ZM786.74 91.7727V106.261H736.09V91.7727H786.74ZM749.673 69.5568H767.724V157.273C767.724 160.775 768.247 163.411 769.293 165.182C770.34 166.912 771.688 168.1 773.338 168.744C775.028 169.347 776.86 169.649 778.832 169.649C780.281 169.649 781.548 169.549 782.635 169.347C783.722 169.146 784.567 168.985 785.17 168.864L788.43 183.776C787.384 184.178 785.895 184.58 783.963 184.983C782.031 185.426 779.616 185.667 776.719 185.707C771.97 185.788 767.543 184.943 763.437 183.172C759.332 181.401 756.012 178.664 753.477 174.962C750.941 171.259 749.673 166.611 749.673 161.016V69.5568ZM806.707 184.5V91.7727H824.758V184.5H806.707ZM815.823 77.4652C812.684 77.4652 809.987 76.4188 807.733 74.326C805.52 72.1929 804.413 69.6574 804.413 66.7195C804.413 63.7412 805.52 61.2057 807.733 59.1129C809.987 56.9799 812.684 55.9133 815.823 55.9133C818.962 55.9133 821.639 56.9799 823.852 59.1129C826.106 61.2057 827.233 63.7412 827.233 66.7195C827.233 69.6574 826.106 72.1929 823.852 74.326C821.639 76.4188 818.962 77.4652 815.823 77.4652ZM867.092 129.443V184.5H849.041V91.7727H866.367V106.865H867.514C869.647 101.955 872.988 98.0109 877.535 95.0327C882.124 92.0544 887.899 90.5653 894.861 90.5653C901.18 90.5653 906.714 91.8935 911.463 94.5497C916.212 97.1657 919.895 101.07 922.511 106.261C925.127 111.453 926.435 117.872 926.435 125.519V184.5H908.384V127.692C908.384 120.971 906.633 115.719 903.132 111.936C899.631 108.113 894.821 106.201 888.704 106.201C884.518 106.201 880.795 107.107 877.535 108.918C874.316 110.729 871.76 113.385 869.869 116.886C868.017 120.348 867.092 124.533 867.092 129.443ZM989.521 221.205C982.156 221.205 975.817 220.239 970.504 218.307C965.232 216.375 960.926 213.819 957.585 210.64C954.245 207.46 951.749 203.979 950.099 200.196L965.614 193.797C966.701 195.568 968.15 197.439 969.961 199.411C971.812 201.424 974.307 203.134 977.447 204.543C980.626 205.951 984.711 206.656 989.702 206.656C996.544 206.656 1002.2 204.985 1006.67 201.645C1011.13 198.345 1013.37 193.072 1013.37 185.828V167.597H1012.22C1011.13 169.569 1009.56 171.762 1007.51 174.177C1005.5 176.592 1002.72 178.684 999.18 180.455C995.638 182.226 991.03 183.112 985.355 183.112C978.03 183.112 971.43 181.401 965.554 177.98C959.718 174.519 955.09 169.428 951.669 162.707C948.288 155.945 946.598 147.634 946.598 137.774C946.598 127.914 948.268 119.462 951.609 112.419C954.989 105.376 959.618 99.983 965.494 96.2401C971.37 92.4569 978.03 90.5653 985.476 90.5653C991.231 90.5653 995.879 91.5312 999.421 93.4631C1002.96 95.3546 1005.72 97.5682 1007.69 100.104C1009.7 102.639 1011.25 104.873 1012.34 106.805H1013.67V91.7727H1031.36V186.553C1031.36 194.521 1029.51 201.061 1025.8 206.173C1022.1 211.284 1017.09 215.067 1010.77 217.522C1004.49 219.977 997.409 221.205 989.521 221.205ZM989.339 168.14C994.531 168.14 998.918 166.933 1002.5 164.518C1006.12 162.063 1008.86 158.561 1010.71 154.013C1012.6 149.425 1013.55 143.932 1013.55 137.533C1013.55 131.295 1012.62 125.801 1010.77 121.052C1008.92 116.303 1006.2 112.6 1002.62 109.944C999.039 107.247 994.612 105.899 989.339 105.899C983.906 105.899 979.379 107.308 975.756 110.125C972.134 112.902 969.397 116.685 967.546 121.474C965.735 126.264 964.83 131.616 964.83 137.533C964.83 143.61 965.755 148.942 967.606 153.531C969.458 158.119 972.195 161.701 975.817 164.276C979.479 166.852 983.987 168.14 989.339 168.14ZM1102 184.5V60.8636H1146.07C1155.65 60.8636 1163.6 62.5137 1169.92 65.8139C1176.28 69.1141 1181.03 73.6821 1184.17 79.5178C1187.31 85.3132 1188.88 92.0142 1188.88 99.6207C1188.88 107.187 1187.29 113.848 1184.11 119.603C1180.97 125.318 1176.22 129.765 1169.86 132.945C1163.54 136.124 1155.59 137.714 1146.01 137.714H1112.63V121.656H1144.32C1150.36 121.656 1155.27 120.79 1159.05 119.06C1162.88 117.329 1165.67 114.814 1167.44 111.513C1169.21 108.213 1170.1 104.249 1170.1 99.6207C1170.1 94.9522 1169.19 90.9074 1167.38 87.4865C1165.61 84.0656 1162.82 81.4496 1158.99 79.6385C1155.21 77.7872 1150.24 76.8615 1144.08 76.8615H1120.66V184.5H1102ZM1163.04 128.719L1193.58 184.5H1172.33L1142.39 128.719H1163.04ZM1248.02 186.371C1239.33 186.371 1231.74 184.379 1225.26 180.395C1218.78 176.411 1213.75 170.836 1210.17 163.673C1206.59 156.509 1204.8 148.138 1204.8 138.559C1204.8 128.94 1206.59 120.529 1210.17 113.325C1213.75 106.12 1218.78 100.526 1225.26 96.5419C1231.74 92.5575 1239.33 90.5653 1248.02 90.5653C1256.72 90.5653 1264.3 92.5575 1270.78 96.5419C1277.26 100.526 1282.29 106.12 1285.87 113.325C1289.46 120.529 1291.25 128.94 1291.25 138.559C1291.25 148.138 1289.46 156.509 1285.87 163.673C1282.29 170.836 1277.26 176.411 1270.78 180.395C1264.3 184.379 1256.72 186.371 1248.02 186.371ZM1248.08 171.219C1253.72 171.219 1258.39 169.73 1262.09 166.751C1265.79 163.773 1268.53 159.809 1270.3 154.859C1272.11 149.908 1273.01 144.455 1273.01 138.499C1273.01 132.582 1272.11 127.149 1270.3 122.199C1268.53 117.208 1265.79 113.204 1262.09 110.185C1258.39 107.167 1253.72 105.658 1248.08 105.658C1242.41 105.658 1237.7 107.167 1233.96 110.185C1230.25 113.204 1227.5 117.208 1225.69 122.199C1223.91 127.149 1223.03 132.582 1223.03 138.499C1223.03 144.455 1223.91 149.908 1225.69 154.859C1227.5 159.809 1230.25 163.773 1233.96 166.751C1237.7 169.73 1242.41 171.219 1248.08 171.219ZM1350.45 186.371C1341.76 186.371 1334.17 184.379 1327.69 180.395C1321.21 176.411 1316.18 170.836 1312.6 163.673C1309.02 156.509 1307.23 148.138 1307.23 138.559C1307.23 128.94 1309.02 120.529 1312.6 113.325C1316.18 106.12 1321.21 100.526 1327.69 96.5419C1334.17 92.5575 1341.76 90.5653 1350.45 90.5653C1359.15 90.5653 1366.73 92.5575 1373.21 96.5419C1379.69 100.526 1384.72 106.12 1388.31 113.325C1391.89 120.529 1393.68 128.94 1393.68 138.559C1393.68 148.138 1391.89 156.509 1388.31 163.673C1384.72 170.836 1379.69 176.411 1373.21 180.395C1366.73 184.379 1359.15 186.371 1350.45 186.371ZM1350.51 171.219C1356.15 171.219 1360.82 169.73 1364.52 166.751C1368.22 163.773 1370.96 159.809 1372.73 154.859C1374.54 149.908 1375.45 144.455 1375.45 138.499C1375.45 132.582 1374.54 127.149 1372.73 122.199C1370.96 117.208 1368.22 113.204 1364.52 110.185C1360.82 107.167 1356.15 105.658 1350.51 105.658C1344.84 105.658 1340.13 107.167 1336.39 110.185C1332.68 113.204 1329.93 117.208 1328.12 122.199C1326.35 127.149 1325.46 132.582 1325.46 138.499C1325.46 144.455 1326.35 149.908 1328.12 154.859C1329.93 159.809 1332.68 163.773 1336.39 166.751C1340.13 169.73 1344.84 171.219 1350.51 171.219ZM1413.83 184.5V91.7727H1431.15V106.865H1432.3C1434.23 101.754 1437.39 97.7694 1441.78 94.9119C1446.16 92.0142 1451.42 90.5653 1457.53 90.5653C1463.73 90.5653 1468.92 92.0142 1473.11 94.9119C1477.33 97.8097 1480.45 101.794 1482.47 106.865H1483.43C1485.65 101.915 1489.17 97.9706 1494 95.0327C1498.83 92.0544 1504.58 90.5653 1511.26 90.5653C1519.67 90.5653 1526.54 93.2015 1531.85 98.4737C1537.2 103.746 1539.88 111.695 1539.88 122.32V184.5H1521.83V124.01C1521.83 117.732 1520.12 113.184 1516.7 110.366C1513.27 107.549 1509.19 106.141 1504.44 106.141C1498.56 106.141 1494 107.952 1490.74 111.574C1487.48 115.156 1485.85 119.764 1485.85 125.398V184.5H1467.86V122.863C1467.86 117.832 1466.29 113.787 1463.15 110.729C1460.01 107.67 1455.92 106.141 1450.89 106.141C1447.47 106.141 1444.31 107.046 1441.42 108.857C1438.56 110.628 1436.24 113.103 1434.47 116.283C1432.74 119.462 1431.88 123.145 1431.88 127.33V184.5H1413.83Z" fill="#265A64"/>
</svg>
